<svg xmlns="http://www.w3.org/2000/svg" id="Layer_2" data-name="Layer 2" viewBox="0 0 1400.52 273.71"><defs><style>      .cls-1 {        fill: #f8f9fd;        stroke-width: 0px;      }    </style></defs><g id="Camada_1" data-name="Camada 1"><g><g><path class="cls-1" d="m400.95,186.14V44.57h-34.4v174.47h100.95v-32.9h-66.55Z"></path><path class="cls-1" d="m599.1,156.73c0-18.61-5.95-34.23-17.83-46.86-11.88-12.62-26.96-18.94-45.23-18.94-19.28,0-35.06,6.27-47.36,18.82-12.3,12.54-18.44,28.2-18.44,46.98s6.23,34.64,18.69,47.11c12.46,12.46,28.99,18.69,49.6,18.69,23.93,0,42.04-8.89,54.33-26.67l-25.92-14.95c-6.31,8.31-15.62,12.46-27.91,12.46-19.11,0-30.83-7.81-35.15-23.43h93.97c.83-4.65,1.25-9.06,1.25-13.21Zm-95.71-11.72c1.82-7.97,5.56-14.16,11.21-18.56s12.79-6.61,21.44-6.61c7.31,0,13.83,2.08,19.56,6.23,5.73,4.16,9.51,10.47,11.34,18.94h-63.55Z"></path><path class="cls-1" d="m709.76,94.42v15.45c-9.47-12.62-22.77-18.94-39.88-18.94s-32.15,6.23-44.12,18.69c-11.96,12.46-17.94,27.5-17.94,45.12s5.94,32.86,17.82,45.23c11.88,12.38,26.62,18.57,44.24,18.57s30.41-6.31,39.88-18.94v13.46c0,9.8-2.91,17.36-8.73,22.68-5.81,5.32-13.79,7.97-23.92,7.97-15.46,0-26.34-5.81-32.65-17.44l-27.42,15.7c5.48,9.97,13.33,17.53,23.55,22.68,10.22,5.15,22.06,7.73,35.52,7.73,17.95,0,33.27-5.07,45.99-15.21,12.71-10.13,19.06-24.84,19.06-44.11v-118.64h-31.4Zm-9.85,84.87c-6.56,6.39-14.91,9.59-25.05,9.59s-18.48-3.2-25.05-9.59c-6.56-6.4-9.84-14.58-9.84-24.55s3.28-17.91,9.84-24.31c6.57-6.39,14.92-9.59,25.05-9.59s18.49,3.2,25.05,9.59c6.57,6.4,9.85,14.5,9.85,24.31s-3.28,18.15-9.85,24.55Z"></path><path class="cls-1" d="m794.13,45.82c-3.91-3.99-8.6-5.99-14.09-5.99s-9.93,2-13.83,5.99c-3.91,3.98-5.86,8.64-5.86,13.95s1.95,9.93,5.86,13.84c3.9,3.9,8.51,5.85,13.83,5.85s10.18-1.95,14.09-5.85c3.9-3.91,5.85-8.52,5.85-13.84s-1.95-9.97-5.85-13.95Zm-30.04,48.6v124.62h32.15v-124.62h-32.15Z"></path><path class="cls-1" d="m890.71,125.32v-30.9h-28.17v-34.9l-32.15,9.72v25.18h-21.69v30.9h21.69v51.85c0,17.11,4.52,29,13.58,35.64,9.06,6.64,24.63,8.72,46.74,6.23v-29.16c-6.15.33-11.31.37-15.46.12-4.15-.25-7.31-1.37-9.47-3.36-2.16-2-3.24-5.15-3.24-9.47v-51.85h28.17Z"></path><path class="cls-1" d="m937.19,45.82c-3.91-3.99-8.6-5.99-14.08-5.99s-9.93,2-13.84,5.99c-3.9,3.98-5.85,8.64-5.85,13.95s1.95,9.93,5.85,13.84c3.91,3.9,8.52,5.85,13.84,5.85s10.17-1.95,14.08-5.85c3.9-3.91,5.86-8.52,5.86-13.84s-1.96-9.97-5.86-13.95Zm-30.04,48.6v124.62h32.16v-124.62h-32.16Z"></path><path class="cls-1" d="m1134.59,104.89c-8.56-9.31-19.98-13.96-34.27-13.96-16.45,0-28.83,5.98-37.14,17.94-7.31-11.96-18.61-17.94-33.9-17.94s-27.16,5.57-34.64,16.7v-13.21h-32.15v124.62h32.15v-70.04c0-9.13,2.12-16.11,6.35-20.93,4.24-4.82,9.93-7.23,17.08-7.23,6.64,0,11.79,2.08,15.45,6.23,3.65,4.15,5.48,9.97,5.48,17.45v74.52h32.16v-70.04c0-9.13,2.03-16.11,6.1-20.93,4.07-4.82,9.76-7.23,17.08-7.23,6.64,0,11.79,2.08,15.45,6.23,3.65,4.15,5.48,9.97,5.48,17.45v74.52h32.15v-76.77c0-15.61-4.28-28.08-12.83-37.38Z"></path><path class="cls-1" d="m1250.86,94.42v67.29c0,10.31-2.49,18.04-7.48,23.18-4.98,5.16-11.63,7.73-19.94,7.73-7.48,0-13.46-2.2-17.94-6.61-4.49-4.4-6.73-10.75-6.73-19.06v-72.53h-32.16v76.52c0,16.12,4.45,28.74,13.34,37.88,8.88,9.14,20.14,13.71,33.77,13.71,16.95,0,29.32-5.82,37.14-17.45v13.96h32.15v-124.62h-32.15Z"></path><path class="cls-1" d="m1345.18,188.88l52.89-73.09v-21.37h-93.38v30.16h50.1l-52.55,73.06v21.4h98.28v-30.16h-55.34Z"></path></g><g><path class="cls-1" d="m89.34,62.29c-.05-8.48-10.85-12.47-16.88-6.32-23.62,22.33-41.01,37.37-67.47,42.76-1.82,6.46-3.2,13.06-4.07,19.75,31.88-3.21,75.35-30.48,88.42-56.19Z"></path><path class="cls-1" d="m83.97,21.45c4.37-4.1,8.81-8.26,13.31-12.36,1.68-1.53.1-4.25-2.07-3.56-31.41,10.02-58.52,31.53-75.58,59.65-1.17,1.93.88,4.21,2.91,3.26,23.36-10.96,42.29-29.15,61.42-46.99Z"></path><path class="cls-1" d="m81.04,239.85c14.01-5.35,27-13.2,38.38-22.97,19.42-15.77,62.66-74.96,45.84-82.47-5.53-3.5-12.72-.19-14.68,5.8-4.78,9.7-11.3,22.92-20.51,36h0c-16.45,23.28-36.3,39.31-62.39,47.64-4.89,1.52-10.14,2.81-15.23,3.69-3.56.92-7.52.79-11.18,1.44-2.1.38-2.89,2.99-1.39,4.5,4.54,4.54,9.38,8.78,14.51,12.65.59.45,1.36.63,2.09.5,8.43-1.51,16.57-3.73,24.56-6.79Z"></path><path class="cls-1" d="m272.75,113.81c0-.05-.02-.11-.03-.16-.34-2.04-3.36-1.84-3.43.23-.68,19.24-4.64,38.49-11.86,57.54l-.08.02c-6.05,15.94-14.31,31.62-24.58,46.66-3.07,6.1-10.9,12.1-12.67,18.85-.97,3.73,3.55,6.42,6.49,3.94,35.11-29.66,54.55-79.46,46.15-127.07Z"></path><path class="cls-1" d="m101.05,40.32c11.28,15.58,33.31-25.22,70.95-31.66,2.81-.48,2.97-4.42.22-5.14-5.02-1.32-10.13-2.36-15.29-3.1-9.44-1.36-19.07.59-27.21,5.56-15.4,9.4-36.84,24.54-28.67,34.34Z"></path><path class="cls-1" d="m133.41,253.53c46.35-32.06,81.42-93.8,78.92-149-.33-23.59-28.99-39.1-48.86-26.31-30.27,18.83-49.58,62.78-77.96,86.92h-.03c-3.24,3.13-8.12,5.56-9.23,10.33-.46,1.51-.48,3.03-.15,4.47,1.32,5.8,8.12,8.57,13.29,5.63,34.9-19.82,53.17-71.05,84.05-90.66,39-12.11,11.17,67.47-.32,85.97h-.01c-14.3,25.65-35.17,47.63-60.07,62.99-6.37,3.95-13.01,7.49-19.84,10.59-2.88,1.61-6.45,2.37-9.32,4.06-1.89,1.12-1.72,3.91.31,4.76,6.53,2.74,13.31,4.97,20.22,6.66.61.15,1.26.08,1.82-.2,9.5-4.64,18.59-10.04,27.21-16.19Z"></path><path class="cls-1" d="m241.36,130.87c-5.24-1.84-11.32,1.68-12.43,7.09-3.1,13.61-8.11,27.54-14.92,41.43h-.05c-17.18,35.13-44.42,66.81-76.93,89.47-2.11,1.47-1.08,4.79,1.5,4.82,12.21.13,26.5.02,33.93-8.27,36.58-32.49,65.42-79.15,75.28-122.63,1.19-5.15-1.61-10.39-6.39-11.92Z"></path><path class="cls-1" d="m49.53,204.81c7.32-3.08,8.03-13.33,1.32-17.18-2.03-1.21-4.43-1.65-6.77-1.23-9.62,1.77-19.7,1.81-30.56.09-2.06-.33-3.71,1.72-2.89,3.65,2.24,5.28,4.82,10.42,7.7,15.36.45.77,1.25,1.26,2.14,1.31,9.72.59,19.78.74,29.05-2.01Z"></path><path class="cls-1" d="m10.56,161.7c48.54,1.11,83.85-36.29,109.91-68.41,23.15-27.44,43.14-51.14,71.36-45.66,29.47,5.69,38.11,29.92,40.17,49.23,1.05,12.53,20.93,10.45,19.32-2.06-3.84-35.99-24.18-60.14-55.81-66.25-39.41-7.61-65.08,22.81-89.9,52.23-26.27,32.65-58.72,65.75-102.67,61.23-1.64-.17-3.02,1.17-2.92,2.82.29,4.87.85,9.71,1.64,14.49.2,1.21,1.23,2.14,2.46,2.21,2.18.13,4.33.19,6.46.19Z"></path></g></g></g></svg>