<svg width="91" height="24" fill="none" xmlns="http://www.w3.org/2000/svg"><g clip-path="url(#a)" fill="#fff"><path d="M81.929 11.682c.418-.926.798-1.767 1.175-2.61l3.358-7.497a2.38 2.38 0 0 1 2.305-1.47 2.347 2.347 0 0 1 2.147 1.673c.158.588.09 1.214-.191 1.755a3784.488 3784.488 0 0 0-5.207 11.173 5238.656 5238.656 0 0 1-3.49 7.489 2.373 2.373 0 0 1-3.459 1.09 2.248 2.248 0 0 1-.877-2.865c.474-1.078.972-2.146 1.484-3.207a.717.717 0 0 0-.006-.692 4235.59 4235.59 0 0 1-6.05-12.971A2.298 2.298 0 0 1 73.94.456a2.356 2.356 0 0 1 3.398 1.062c.887 1.926 1.748 3.863 2.62 5.791l1.97 4.373ZM6.945 12.81c2.227 0 4.347-.004 6.466 0a2.142 2.142 0 0 1 2.209 1.65 2.102 2.102 0 0 1-2.185 2.545c-1.653.018-3.307.004-4.961.004H2.476a2.265 2.265 0 0 1-2.253-1.32 2.186 2.186 0 0 1 .492-2.561l7.74-8.376c.081-.087.16-.173.251-.277-.125-.137-.283-.07-.418-.072-1.834-.005-3.669.005-5.502-.007A2.11 2.11 0 0 1 .703 2.878a2.064 2.064 0 0 1 .83-2.296c.376-.254.82-.387 1.274-.38 3.488 0 6.976-.019 10.463.007a2.242 2.242 0 0 1 2.432 2.325 2.445 2.445 0 0 1-.723 1.572c-2.584 2.788-5.165 5.58-7.742 8.374-.08.088-.153.175-.292.33ZM51.998 3.132a7.272 7.272 0 0 0-10.767-1.327c-.065.054-.117.135-.226.123-.02-.052-.04-.108-.063-.162A2.345 2.345 0 0 0 38.255.264a2.287 2.287 0 0 0-1.888 2.352c-.003 6.16-.003 12.322 0 18.482a2.315 2.315 0 0 0 2.355 2.38 2.324 2.324 0 0 0 2.342-2.395c.007-1.06 0-2.117 0-3.176v-2.62c.136.11.214.174.29.234a7.242 7.242 0 0 0 9.734-.382c3.056-2.957 3.47-8.438.91-12.007Zm-3.754 7.926a3.603 3.603 0 0 1-3.526 1.948 3.804 3.804 0 0 1-3.469-2.601 4.553 4.553 0 0 1-.318-1.67 4.86 4.86 0 0 1 .727-2.742 3.803 3.803 0 0 1 6.483-.01 4.708 4.708 0 0 1 .103 5.075ZM34.097 10.538c0-2.646.006-5.292 0-7.939A2.307 2.307 0 0 0 32.184.265a2.334 2.334 0 0 0-2.671 1.519c-.02.051-.047.1-.087.182l-.288-.237a7.261 7.261 0 0 0-10.114.7 9.722 9.722 0 0 0-1.008 10.985 7.306 7.306 0 0 0 11.269 1.95c.041-.035.077-.096.185-.039.085.286.224.554.408.788a2.372 2.372 0 0 0 2.586.778 2.288 2.288 0 0 0 1.63-2.201c.015-1.388.003-2.77.003-4.152Zm-4.57-2.075a4.853 4.853 0 0 1-.873 2.958 3.811 3.811 0 0 1-6.021.26 4.912 4.912 0 0 1-.009-6.125 3.66 3.66 0 0 1 3.717-1.271 3.89 3.89 0 0 1 2.985 2.883c.136.418.203.855.2 1.294v.001ZM72.1 2.438A2.146 2.146 0 0 0 70.773.442a2.392 2.392 0 0 0-3.321 1.532c-.117-.097-.196-.161-.274-.228a7.24 7.24 0 0 0-9.768.305c-2.976 2.861-3.49 8.158-1.137 11.743a7.283 7.283 0 0 0 11.002 1.595c.058-.044.12-.084.183-.121.066.156.117.293.18.425a2.37 2.37 0 0 0 2.667 1.252 2.28 2.28 0 0 0 1.798-2.161c.01-4.115.01-8.23-.003-12.346Zm-5.51 9.1a3.813 3.813 0 0 1-6.108-.078 4.943 4.943 0 0 1-.02-5.674 3.815 3.815 0 0 1 6.24.043c.572.813.867 1.79.841 2.784a4.576 4.576 0 0 1-.955 2.924h.001Z"/></g><defs><clipPath id="a"><path fill="#fff" d="M0 0h91v23.66H0z"/></clipPath></defs></svg>